# xmcd
#
# Track frame offsets:
#	151
#	11736
#	25947
#	40082
#	54521
#	71958
#	84519
#	90550
#	104017
#	117266
#
# Disc length: 1736 seconds
#
# Revision: 1
# Processed by: cddbd v1.5.1PL0 Copyright (c) Steve Scherf et al.
# Submitted via: EasyCDDAExtractor 7.0.6.1
#
DISCID=8106c60a
DTITLE=Various Artist - Lola Beltran y María de Lourdes
DYEAR=2004
DGENRE=Folklore
TTITLE0=Lola Beltrán - El crucifijo de piedra
TTITLE1=María de Lourdes - Aires del Mayab
TTITLE2=Lola Beltrán - Cancion Mixteca
TTITLE3=María de Lourdes - Guitarras de media noche
TTITLE4=Lola Beltrán - Cielito lindo
TTITLE5=María de Lourdes - Ruega por nosotros
TTITLE6=Lola Beltrán - Gorrioncillo pecho amarillo
TTITLE7=María de Lourdes - A punto de llorar
TTITLE8=Lola Beltrán - La feria de las flores
TTITLE9=María de Lourdes - El mariachi
EXTD=
EXTT0=
EXTT1=
EXTT2=
EXTT3=
EXTT4=
EXTT5=
EXTT6=
EXTT7=
EXTT8=
EXTT9=
PLAYORDER=
